<?xml version="1.0" ?>
<!DOCTYPE svg  PUBLIC '-//W3C//DTD SVG 1.1//EN'  'http://www.w3.org/Graphics/SVG/1.1/DTD/svg11.dtd'>
<!-- Uploaded to: SVG Repo, www.svgrepo.com, Generator: SVG Repo Mixer Tools -->
<svg fill="#000000" width="800px" height="800px" viewBox="0 0 512 512" enable-background="new 0 0 512 512" id="Jewelry" version="1.1" xml:space="preserve" xmlns="http://www.w3.org/2000/svg" xmlns:xlink="http://www.w3.org/1999/xlink">
<g>
<path d="M401.453,209.146c6.287-26.635,2.236-53.984-11.406-77.014c-22.305-37.631-57.615-54.701-83.308-62.398   c-27.08-8.109-48.889-7.793-50.759-7.754c-3.936-0.109-68.726-0.964-114.025,44.319c-1.348,1.348-1.348,3.532-0.001,4.88   c1.348,1.348,3.532,1.347,4.88,0.001c43.587-43.571,108.402-42.321,109.048-42.301c0.065,0.001,0.132,0.001,0.194,0   c0.892-0.031,87.464-1.677,128.034,66.77c12.728,21.485,16.502,47.023,10.627,71.911c-7.308,30.948-23.098,74.064-56.861,105.571   c-2.573-1.862-5.681-2.899-8.919-2.899c-8.401,0-15.237,6.836-15.237,15.237c0,1.864,0.341,3.687,0.991,5.397   c-13.454,8.294-28.38,14.392-44.428,18.165c-2.148-5.88-7.751-9.97-14.305-9.97c-6.546,0-12.142,4.086-14.292,9.973   c-15.973-3.756-30.81-9.8-44.171-18.008c0.692-1.757,1.055-3.634,1.055-5.558c0-8.401-6.836-15.237-15.237-15.237   c-3.331,0-6.508,1.086-9.113,3.035c-33.844-31.527-49.667-74.704-56.989-105.707c-3.976-16.841-3.509-34.364,1.35-50.674   c0.545-1.826-0.495-3.748-2.321-4.291c-1.831-0.543-3.747,0.496-4.291,2.321c-5.203,17.463-5.705,36.216-1.453,54.229   c7.562,32.017,23.977,76.68,59.258,109.404c-1.085,2.132-1.677,4.502-1.677,6.919c0,6.253,3.855,11.686,9.336,14.02   c-11.58,17.51-12.545,25.005-12.545,26.978c0,10.164,8.275,18.435,18.446,18.435s18.446-8.271,18.446-18.435   c0-6.569-6.938-18.438-12.554-26.972c1.598-0.672,3.075-1.611,4.364-2.786c14.266,8.813,30.129,15.263,47.239,19.209   c0.601,5.654,4.306,10.39,9.372,12.475c-7.354,10.877-24.778,38.022-24.778,51.09c0,16.849,13.706,30.555,30.556,30.555   c16.854,0,30.566-13.706,30.566-30.555c0-13.067-17.43-40.211-24.788-51.089c5.073-2.085,8.782-6.821,9.382-12.478   c17.147-3.953,33.082-10.442,47.43-19.324c1.32,1.233,2.842,2.217,4.493,2.91c-5.614,8.537-12.55,20.405-12.55,26.965   c0,10.164,8.274,18.435,18.445,18.435c10.172,0,18.446-8.271,18.446-18.435c0-6.789-7.689-19.569-12.549-26.967   c5.47-2.326,9.341-7.766,9.341-14.03c0-2.507-0.631-4.949-1.788-7.131C377.551,285.641,393.913,241.083,401.453,209.146z    M194.879,366.467c0,6.359-5.18,11.534-11.546,11.534s-11.546-5.175-11.546-11.534c0-4.121,5.574-14.302,11.545-23.375   C190.339,353.741,194.879,362.863,194.879,366.467z M190.147,330.258c-1.361,1.938-3.393,3.166-5.674,3.467   c-0.32-0.112-0.652-0.194-0.998-0.21c-0.437-0.019-0.863,0.07-1.271,0.212c-4.053-0.556-7.209-4.07-7.209-8.257   c0-1.961,0.657-3.795,1.902-5.305c1.59-1.927,3.936-3.033,6.435-3.033c4.598,0,8.337,3.739,8.337,8.338   C191.67,327.192,191.145,328.846,190.147,330.258z M279.646,419.482c0,13.044-10.617,23.655-23.667,23.655   c-13.045,0-23.656-10.611-23.656-23.655c0-10.127,15.135-34.671,23.657-47.311C264.505,384.808,279.646,409.35,279.646,419.482z    M255.979,362.638c-4.598,0-8.338-3.739-8.338-8.337c0-0.285,0.018-0.571,0.041-0.826c0.421-4.282,3.987-7.512,8.297-7.512   c4.312,0,7.881,3.225,8.307,7.502c0.025,0.272,0.042,0.554,0.042,0.836C264.327,358.898,260.582,362.638,255.979,362.638z    M340.504,366.467c0,6.359-5.18,11.534-11.547,11.534c-6.366,0-11.546-5.175-11.546-11.534c0-3.598,4.54-12.721,11.547-23.376   C334.914,352.134,340.504,362.334,340.504,366.467z M330.078,333.736c-0.391-0.132-0.799-0.218-1.229-0.208   c-0.344,0.011-0.674,0.089-0.994,0.196c-2.322-0.303-4.439-1.591-5.789-3.566c-0.947-1.385-1.446-3.007-1.446-4.688   c0-4.599,3.739-8.338,8.337-8.338c2.433,0,4.74,1.063,6.33,2.914c0.001,0.001,0.001,0.003,0.002,0.004   c1.294,1.503,2.006,3.427,2.006,5.42C337.295,329.676,334.109,333.205,330.078,333.736z"/>
<path d="M123.698,135.854c0.558,0.336,1.173,0.497,1.781,0.497c1.168,0,2.308-0.593,2.956-1.665   c0.297-0.492,0.597-0.979,0.898-1.465c1.008-1.617,0.513-3.744-1.104-4.752c-1.614-1.007-3.744-0.514-4.751,1.104   c-0.319,0.51-0.635,1.024-0.948,1.543C121.544,132.746,122.067,134.867,123.698,135.854z"/>
<path d="M307.373,246.202c-0.217,0.171-0.435,0.339-0.656,0.503c-1.533,1.131-1.859,3.292-0.729,4.825   c0.677,0.916,1.721,1.401,2.779,1.401c0.712,0,1.43-0.219,2.046-0.674c0.283-0.209,0.562-0.422,0.837-0.64   c1.496-1.182,1.749-3.352,0.569-4.847C311.037,245.276,308.868,245.022,307.373,246.202z"/>
<path d="M292.684,258.217c1.905,0,3.449-1.544,3.449-3.45c0-1.905-1.544-3.45-3.449-3.45c-13.051,0-23.668-10.615-23.668-23.666   c0-10.123,15.132-34.65,23.658-47.289c3.354,4.988,9.137,13.865,14.147,22.955c5.172,9.382,8.376,16.941,9.265,21.861   c0,0,0,0.001,0,0.002c0.168,0.926,0.253,1.757,0.253,2.471c0,2.018-0.254,4.021-0.754,5.953c-0.477,1.845,0.632,3.727,2.476,4.204   c0.291,0.075,0.58,0.111,0.867,0.111c1.535,0,2.936-1.032,3.338-2.587c0.645-2.497,0.973-5.081,0.973-7.682   c0-1.125-0.122-2.37-0.362-3.7c0-0.001-0.001-0.002-0.001-0.003c-1.036-5.73-4.404-13.791-10.012-23.962   c-5.076-9.208-10.795-18.021-14.24-23.15c8.475-2.557,14.668-10.429,14.668-19.726c0-11.363-9.245-20.608-20.607-20.608   c-11.363,0-20.608,9.245-20.608,20.608c0,9.292,6.186,17.161,14.653,19.723c-7.455,11.039-24.612,37.853-24.612,50.818   C262.116,244.506,275.828,258.217,292.684,258.217z M278.975,157.109c0-7.559,6.15-13.708,13.709-13.708   c7.558,0,13.707,6.149,13.707,13.708c0,7.558-6.149,13.707-13.707,13.707C285.125,170.816,278.975,164.667,278.975,157.109z"/>
<path d="M233.979,246.208c-0.213,0.169-0.431,0.335-0.651,0.497c-1.532,1.131-1.857,3.292-0.727,4.825   c0.676,0.916,1.72,1.401,2.778,1.401c0.712,0,1.429-0.219,2.046-0.674c0.285-0.21,0.565-0.426,0.844-0.646   c1.492-1.184,1.741-3.354,0.557-4.847C237.644,245.273,235.473,245.022,233.979,246.208z"/>
<path d="M219.297,258.217c1.905,0,3.449-1.544,3.449-3.45c0-1.905-1.544-3.45-3.449-3.45c-13.051,0-23.668-10.615-23.668-23.666   c0-10.123,15.133-34.648,23.658-47.289c3.354,4.988,9.135,13.865,14.146,22.955c5.172,9.382,8.376,16.941,9.265,21.861   c0,0,0,0.001,0,0.002c0.169,0.93,0.254,1.762,0.254,2.471c0,2.016-0.254,4.018-0.755,5.953c-0.477,1.845,0.631,3.727,2.476,4.204   c0.291,0.075,0.58,0.111,0.866,0.111c1.535,0,2.937-1.032,3.338-2.587c0.647-2.5,0.975-5.084,0.975-7.682   c0-1.12-0.122-2.365-0.363-3.7c0-0.001-0.001-0.002-0.001-0.003c-1.036-5.73-4.403-13.791-10.013-23.962   c-5.016-9.099-10.78-17.984-14.244-23.148c8.479-2.556,14.674-10.429,14.674-19.728c0-11.363-9.245-20.608-20.607-20.608   c-11.363,0-20.608,9.245-20.608,20.608c0,9.292,6.186,17.161,14.653,19.723c-7.455,11.039-24.612,37.853-24.612,50.818   C188.729,244.506,202.441,258.217,219.297,258.217z M205.588,157.109c0-7.559,6.15-13.708,13.709-13.708   c7.558,0,13.707,6.149,13.707,13.708c0,7.558-6.149,13.707-13.707,13.707C211.738,170.816,205.588,164.667,205.588,157.109z"/>
</g>
</svg>