<svg
className="fill-current"
width="16"
height="18"
viewBox="0 0 16 18"
fill="none"
xmlns="http://www.w3.org/2000/svg"
>
<path d="M4.57965 0.592365L4.00601 1.15652L3.72156 1.18971C1.85841 1.41253 0.34134 2.87271 0.0474084 4.72164C0.0189634 4.90179 0 6.00166 0 7.34332V9.65685L0.118521 9.77063L0.232301 9.88915H1.32744H2.42257L2.53635 9.77063C2.6928 9.61892 2.6928 9.40084 2.53635 9.24914C2.42257 9.13062 2.40835 9.13062 1.58818 9.13062H0.753793L0.768016 6.9119L0.786979 4.69793L0.9055 4.33289C1.10462 3.74976 1.3464 3.36576 1.79678 2.92012C2.3562 2.36544 2.98199 2.05254 3.74052 1.94825L3.99179 1.91506L5.3287 3.24724C6.89792 4.80697 6.78414 4.75008 7.27719 4.29022L7.58534 4.00103V5.11987V6.24345L7.70386 6.35723C7.77498 6.43308 7.87453 6.47575 7.96461 6.47575C8.05469 6.47575 8.15424 6.43308 8.22536 6.35723L8.34388 6.24345V5.02979V3.82088L8.85115 4.20014C9.42005 4.63156 9.52909 4.66001 9.77561 4.44193C9.86095 4.36607 10.3824 3.77821 10.9276 3.1382C11.8142 2.10469 11.9374 1.97669 12.0654 1.97669C12.3688 1.97195 12.8903 2.11892 13.317 2.33225C13.6915 2.51715 13.8338 2.62144 14.1704 2.96278C14.6207 3.41316 14.8341 3.74028 15.0048 4.23333C15.1944 4.78327 15.2181 5.0772 15.2181 7.17265V9.17803H14.3742C13.5493 9.17803 13.5256 9.18277 13.4261 9.28706C13.2981 9.42455 13.2933 9.65211 13.4118 9.79908C13.5019 9.91286 13.5161 9.91286 14.5591 9.92708C15.7064 9.9413 15.8391 9.92234 15.9292 9.69952C15.9671 9.6047 15.9766 8.9078 15.9671 7.15843C15.9482 4.82119 15.9434 4.73112 15.8391 4.36607C15.4836 3.11923 14.7108 2.17581 13.573 1.59742C13.2222 1.42201 12.6059 1.23712 12.2077 1.18971L11.9232 1.15652L11.3496 0.592365L10.7759 0.0282049H7.96461H5.15329L4.57965 0.592365ZM8.82744 1.64957L7.96461 2.51715L7.10178 1.64957L6.2342 0.786739H7.96461H9.69502L8.82744 1.64957ZM6.37643 2.01936L7.41941 3.06234L7.12074 3.35627L6.82681 3.65495L5.77434 2.60248L4.71713 1.54527L5.00159 1.26082C5.15803 1.10438 5.29552 0.976373 5.30974 0.976373C5.32396 0.976373 5.80279 1.44572 6.37643 2.01936ZM10.9703 1.25608C11.2263 1.51209 11.2453 1.55001 11.1836 1.62587C10.8613 2.03358 9.46272 3.63124 9.42953 3.63124C9.40583 3.63124 9.20671 3.4985 8.98863 3.33257L8.5904 3.0339L9.59072 2.00988C10.1454 1.44572 10.6195 0.981113 10.6432 0.981113C10.6716 0.976373 10.8186 1.10438 10.9703 1.25608Z" />
<path d="M3.15368 5.07793L3.03516 5.19171V10.8286V16.4654L3.1442 16.6266C3.31012 16.8731 3.76525 17.0817 4.4337 17.2145C5.25387 17.3757 5.87492 17.4278 7.37302 17.461C10.4735 17.5226 12.4315 17.2145 12.8013 16.6077C12.8914 16.4607 12.8961 16.3327 12.8961 11.3927V6.32951L12.7776 6.21573C12.7065 6.13988 12.6069 6.09721 12.5168 6.09721C12.4268 6.09721 12.3272 6.13988 12.2561 6.21573L12.1376 6.32951V11.2837V16.2379L11.8816 16.3327C11.1847 16.5934 10.1132 16.693 7.96563 16.693C5.82277 16.693 4.75134 16.5934 4.0497 16.3327L3.79369 16.2379V10.7148V5.19171L3.67517 5.07793C3.60406 5.00208 3.5045 4.95941 3.41442 4.95941C3.32435 4.95941 3.22479 5.00208 3.15368 5.07793Z" />
<path d="M12.2552 5.07776C12.1794 5.14887 12.1367 5.24843 12.1367 5.33851C12.1367 5.42858 12.1794 5.52814 12.2552 5.59925C12.3264 5.67511 12.4259 5.71777 12.516 5.71777C12.6061 5.71777 12.7056 5.67511 12.7767 5.59925C12.8526 5.52814 12.8953 5.42858 12.8953 5.33851C12.8953 5.24843 12.8526 5.14887 12.7767 5.07776C12.7056 5.00191 12.6061 4.95924 12.516 4.95924C12.4259 4.95924 12.3264 5.00191 12.2552 5.07776Z" />
<path d="M8.84118 6.59534C8.76532 6.66645 8.72266 6.76601 8.72266 6.85608C8.72266 6.94616 8.76532 7.04572 8.84118 7.11683L8.95496 7.23535H10.2397H11.5245L11.6383 7.11683C11.7141 7.04572 11.7568 6.94616 11.7568 6.85608C11.7568 6.76601 11.7141 6.66645 11.6383 6.59534L11.5245 6.47682H10.2397H8.95496L8.84118 6.59534Z" />
</svg>